<?xml version="1.0" encoding="utf-8"?>
<!-- Generator: Adobe Illustrator 24.1.1, SVG Export Plug-In . SVG Version: 6.00 Build 0)  -->
<svg version="1.1" id="Layer_1" xmlns="http://www.w3.org/2000/svg" xmlns:xlink="http://www.w3.org/1999/xlink" x="0px" y="0px"
	 viewBox="0 0 512 512" style="enable-background:new 0 0 512 512;" xml:space="preserve">
<g>
	<path d="M400.9,257.5l18.1-18.1c10-10,10-26.2,0-36.2c-10-10-26.2-10-36.2,0l-18.1,18.1l-18.1-18.1c-10-10-26.2-10-36.2,0
		s-10,26.2,0,36.2l18.1,18.1l-18.1,18.1c-9.8,10.2-9.5,26.4,0.6,36.2c9.9,9.6,25.6,9.6,35.6,0l18.1-18.1l18.1,18.1
		c10.2,9.8,26.4,9.5,36.2-0.6c9.6-9.9,9.6-25.6,0-35.6L400.9,257.5z M102.4,0h307.2C466.1,0,512,45.8,512,102.4v307.2
		c0,56.5-45.9,102.4-102.4,102.4H102.4C45.8,512,0,466.1,0,409.6V102.4C0,45.8,45.8,0,102.4,0z M135.2,340.1h25.7l46.7,43.8
		c9.5,8.9,22,13.8,35,13.8h5.2c22.6,0,41-18.3,41-41V157.1c0-22.6-18.4-41-41-41h-5.2c-13,0-25.5,4.9-35,13.8l-46.7,43.8h-25.7
		c-28.3,0-51.2,22.9-51.2,51.2v64C84,317.3,106.9,340.2,135.2,340.1L135.2,340.1z M181.2,224.9l56.4-52.9v169.8L181.2,289h-46v-64
		H181.2z"/>
</g>
</svg>
