<?xml version="1.0" encoding="utf-8"?>
<!-- Generator: Adobe Illustrator 24.1.1, SVG Export Plug-In . SVG Version: 6.00 Build 0)  -->
<svg version="1.1" id="Layer_1" xmlns="http://www.w3.org/2000/svg" xmlns:xlink="http://www.w3.org/1999/xlink" x="0px" y="0px"
	 viewBox="0 0 512 512" style="enable-background:new 0 0 512 512;" xml:space="preserve">
<g>
	<path d="M102.4,0h307.2C466.1,0,512,45.8,512,102.4v307.2c0,56.5-45.9,102.4-102.4,102.4H102.4C45.8,512,0,466.1,0,409.6V102.4
		C0,45.8,45.8,0,102.4,0z M131.1,339.4h25.7l46.7,43.8c9.5,8.9,22,13.8,35,13.8h5.3c22.6,0,41-18.3,41-41V156.3
		c0-22.6-18.3-41-41-41h-5.3c-13,0-25.5,5-35,13.9l-46.7,43.8h-25.7c-28.3,0-51.2,22.9-51.2,51.2v64
		C79.9,316.4,102.8,339.4,131.1,339.4L131.1,339.4z M332.7,205.4c27.9,0,50.5,22.6,50.5,50.5v1c0,27.9-22.6,50.5-50.5,50.5
		c-14.1,0-25.6,11.5-25.6,25.6s11.5,25.6,25.6,25.6c56.2,0,101.7-45.5,101.7-101.7v-1c0-56.1-45.5-101.7-101.7-101.7
		c-14.1,0-25.6,11.5-25.6,25.6C307.1,194,318.6,205.4,332.7,205.4z M332.8,230.4c-14.1,0-25.6,11.5-25.6,25.6
		c0,14.1,11.5,25.6,25.6,25.6c14.1,0,25.6-11.5,25.6-25.6C358.4,241.9,346.9,230.4,332.8,230.4z M177.1,224.1l56.4-52.9v169.8
		l-56.4-52.9h-45.9v-64H177.1z"/>
</g>
</svg>
